<svg version="1.0" xmlns="http://www.w3.org/2000/svg" width="900.000000pt" height="1440.000000pt" viewBox="0 0 900.000000 1440.000000" preserveAspectRatio="xMidYMid meet">  <g transform="translate(0.000000,1440.000000) scale(0.100000,-0.100000)" fill="#ffffff" stroke="none"> <path d="M4314 14349 c-3 -5 -16 -9 -29 -9 -13 0 -30 -7 -39 -15 -8 -8 -21 -12 -30 -9 -9 3 -26 -5 -41 -21 -18 -17 -33 -24 -45 -20 -13 4 -32 -9 -67 -47 -26 -29 -69 -75 -95 -102 -27 -28 -48 -58 -48 -68 0 -9 -6 -21 -13 -25 -15 -9 -29 -64 -32 -129 -1 -22 -5 -46 -10 -54 -4 -7 -12 -47 -17 -89 -5 -42 -12 -93 -15 -114 -7 -48 3 -87 22 -87 11 0 15 13 15 51 0 28 5 59 10 70 6 11 12 55 14 99 1 43 7 85 13 92 6 7 14 37 18 65 4 29 11 55 16 59 5 3 9 12 9 19 0 23 86 130 133 166 23 18 50 41 60 51 10 10 30 20 45 24 15 3 55 20 90 37 62 31 65 31 190 28 70 -1 132 -6 137 -11 6 -4 27 -11 49 -14 36 -7 55 -14 153 -58 50 -23 156 -127 179 -177 21 -45 43 -71 61 -71 15 0 18 36 3 45 -5 3 -10 14 -10 24 0 10 -7 24 -15 31 -8 7 -15 19 -15 27 0 9 -22 38 -50 66 -27 28 -50 54 -50 59 0 4 -10 8 -23 8 -13 0 -34 11 -47 25 -13 14 -32 25 -42 25 -11 0 -32 7 -48 15 -57 29 -171 46 -303 44 -70 -1 -130 -6 -133 -10z"/> <path d="M5035 13970 c-3 -5 -3 -16 2 -22 18 -28 35 -163 41 -323 l7 -169 27 -15 c30 -17 47 -9 28 14 -8 10 -12 52 -11 137 0 68 -4 150 -10 183 -5 33 -14 89 -19 124 -5 35 -11 65 -12 66 -12 10 -48 14 -53 5z"/> <path d="M3842 13507 c-12 -13 -22 -29 -22 -35 0 -6 -14 -19 -30 -27 -40 -21 -50 -49 -50 -146 0 -80 16 -153 48 -218 22 -45 79 -101 103 -101 10 0 19 -5 19 -10 0 -6 11 -15 24 -21 26 -12 27 -16 29 -130 1 -42 7 -82 12 -90 6 -8 9 -32 7 -54 -2 -22 -3 -62 -3 -90 1 -70 -18 -145 -35 -145 -17 0 -29 -24 -19 -40 5 -8 11 -8 20 0 20 16 35 4 35 -29 0 -95 81 -291 165 -401 51 -67 200 -220 214 -220 5 0 33 -25 64 -56 l55 -56 48 44 c27 23 66 59 88 78 109 97 183 177 232 250 62 95 134 278 134 342 0 15 10 44 22 64 l22 37 -22 18 c-19 15 -22 27 -22 86 0 123 -38 126 -41 3 -3 -138 -5 -157 -22 -235 -30 -141 -86 -255 -183 -375 -89 -111 -142 -160 -171 -160 -10 0 -10 7 1 33 39 91 74 255 81 382 9 155 18 179 84 228 73 54 134 117 167 175 15 26 33 51 41 55 7 4 13 15 13 23 0 12 4 12 20 2 25 -16 36 -4 22 26 -9 19 -7 35 7 74 12 33 17 66 14 95 -5 39 -2 48 26 76 35 35 38 46 16 55 -9 3 -29 -8 -50 -29 -30 -31 -35 -43 -41 -103 -4 -37 -10 -69 -13 -72 -4 -3 -22 -36 -40 -73 -35 -72 -121 -192 -155 -217 -12 -8 -37 -29 -57 -47 -57 -52 -215 -78 -314 -52 -22 6 -51 13 -65 16 -42 10 -166 130 -210 203 -14 23 -38 61 -54 86 -16 25 -34 71 -41 102 -7 31 -18 71 -23 87 -6 17 -14 44 -19 60 -6 22 -18 33 -42 41 -42 13 -101 60 -101 79 0 8 -4 15 -8 15 -12 0 -33 106 -39 193 l-5 77 37 33 c76 66 86 78 83 95 -5 26 -31 25 -56 -1z m207 -872 c24 -45 145 -176 214 -230 l38 -30 5 -90 c2 -49 9 -103 13 -120 5 -16 12 -59 16 -95 7 -68 35 -195 54 -244 22 -56 -6 -46 -75 27 -122 129 -168 196 -226 330 -43 99 -60 178 -64 297 -1 41 -6 100 -12 130 -15 84 0 95 37 25z m561 -297 c-1 -18 -5 -53 -10 -78 -5 -25 -14 -88 -19 -140 -6 -52 -22 -142 -36 -200 -15 -58 -24 -115 -22 -128 3 -16 -4 -33 -19 -50 l-24 -27 -25 28 c-20 22 -25 39 -25 78 0 45 -12 118 -40 235 -5 23 -12 72 -16 110 -3 38 -12 91 -20 118 -26 91 -32 86 121 86 l135 0 0 -32z"/> <path d="M5175 13431 c-3 -6 1 -45 10 -86 14 -69 14 -78 -1 -106 -14 -28 -14 -33 -1 -46 13 -13 17 -11 34 14 29 40 38 114 19 155 -8 18 -16 42 -18 53 -4 22 -32 32 -43 16z"/> <path d="M5172 13153 c-7 -2 -24 -29 -38 -60 -14 -30 -32 -57 -40 -60 -18 -7 -18 -42 0 -49 18 -7 56 30 56 55 0 10 7 21 15 24 17 7 47 75 39 88 -6 10 -12 10 -32 2z"/> <path d="M3852 12387 c-12 -13 -22 -31 -22 -41 0 -15 5 -17 28 -11 38 9 46 19 38 49 -8 32 -16 33 -44 3z"/> <path d="M5062 12378 c3 -35 29 -47 58 -29 12 8 9 14 -13 35 -37 34 -49 33 -45 -6z"/> <path d="M5147 12353 c-18 -17 -6 -53 23 -68 54 -28 67 -1 23 46 -29 30 -35 33 -46 22z"/> <path d="M3763 12328 c-15 -7 -23 -20 -23 -36 0 -21 3 -23 28 -17 41 10 58 30 42 49 -14 18 -17 18 -47 4z"/> <path d="M5237 12283 c-25 -24 23 -70 167 -157 17 -10 41 -27 55 -37 13 -10 28 -19 33 -19 6 0 27 -12 47 -27 62 -48 81 -56 97 -42 12 10 13 9 8 -5 -8 -21 26 -56 84 -86 21 -11 48 -34 60 -50 13 -17 29 -30 36 -30 8 0 16 -3 18 -7 2 -5 17 -15 33 -23 53 -28 39 -45 -32 -42 -43 2 -73 -2 -94 -12 -18 -9 -37 -16 -44 -16 -16 0 -173 -78 -206 -103 l-28 -20 -53 23 c-101 43 -290 69 -513 69 -147 1 -164 -1 -210 -23 -66 -31 -147 -96 -164 -132 -49 -103 -56 -111 -67 -76 -26 78 -86 148 -169 197 -50 29 -51 29 -233 33 -135 3 -203 0 -260 -11 -42 -9 -102 -19 -132 -22 -30 -4 -69 -13 -86 -20 -64 -26 -111 -28 -143 -6 -16 12 -33 21 -38 21 -4 0 -24 8 -43 19 -60 32 -192 74 -255 82 -33 4 -71 10 -86 14 -21 5 -27 2 -37 -19 -10 -22 -18 -26 -49 -25 -79 3 -263 -42 -335 -81 -10 -6 -27 -10 -38 -10 -11 0 -23 -7 -26 -15 -4 -8 -17 -15 -31 -15 -16 0 -36 -13 -56 -35 -17 -19 -37 -35 -44 -35 -28 0 -73 -43 -73 -69 0 -18 -11 -35 -35 -54 -19 -15 -35 -37 -35 -48 0 -11 -7 -27 -15 -35 -8 -9 -15 -26 -15 -40 0 -13 -4 -24 -10 -24 -5 0 -12 -17 -15 -37 -3 -21 -13 -64 -21 -95 -12 -45 -14 -94 -9 -230 3 -95 8 -180 11 -189 5 -17 20 -124 28 -202 l6 -47 -105 -103 c-58 -57 -105 -111 -105 -120 0 -9 -9 -21 -20 -27 -11 -6 -23 -23 -26 -37 -4 -15 -13 -38 -20 -52 -7 -13 -11 -28 -9 -32 3 -4 -2 -12 -10 -19 -8 -7 -15 -25 -15 -41 0 -15 -7 -34 -15 -43 -20 -19 -36 -61 -46 -116 -4 -25 -13 -65 -19 -90 -6 -25 -12 -57 -13 -71 -1 -18 -16 -38 -43 -61 -23 -19 -52 -46 -65 -59 -13 -14 -31 -23 -40 -22 -25 6 -119 -84 -119 -113 0 -23 -10 -35 -69 -82 -17 -13 -24 -28 -23 -49 0 -22 -5 -32 -17 -36 -10 -2 -33 -35 -52 -73 -19 -38 -37 -71 -41 -74 -3 -3 -10 -18 -14 -34 -3 -15 -17 -47 -29 -70 -12 -22 -25 -58 -29 -79 -4 -20 -12 -37 -17 -37 -6 0 -9 -10 -7 -23 1 -13 -5 -35 -15 -50 -9 -14 -17 -35 -17 -47 0 -11 -9 -37 -20 -57 -11 -21 -20 -45 -20 -54 0 -9 -7 -30 -15 -45 -8 -16 -12 -37 -9 -46 3 -10 -4 -26 -15 -37 -12 -12 -21 -33 -21 -48 0 -16 -7 -37 -15 -47 -8 -11 -15 -31 -15 -45 0 -14 -7 -35 -15 -45 -8 -11 -15 -30 -15 -42 0 -13 -5 -26 -10 -29 -6 -3 -10 -16 -10 -27 0 -11 -8 -39 -19 -62 -24 -54 -41 -108 -41 -132 0 -11 -7 -29 -15 -40 -8 -10 -15 -30 -15 -44 0 -14 -7 -38 -15 -54 -8 -15 -15 -43 -15 -61 0 -27 -7 -37 -40 -59 -29 -19 -47 -25 -65 -20 -17 4 -32 1 -44 -10 -16 -14 -23 -15 -38 -5 -16 9 -29 7 -73 -14 -39 -19 -58 -23 -67 -16 -24 20 -133 -27 -133 -57 0 -20 22 -17 165 20 55 14 126 26 157 26 31 0 60 5 63 10 17 27 169 4 253 -38 63 -32 92 -67 92 -111 0 -44 11 -51 43 -27 26 20 22 71 -8 94 -14 11 -25 23 -25 26 0 4 13 34 29 69 16 34 37 82 46 107 17 43 34 85 57 140 5 14 16 39 22 55 34 81 148 295 201 376 42 64 65 94 161 203 39 43 46 47 110 56 38 5 98 17 134 26 36 9 88 21 115 26 28 6 65 17 83 25 19 8 45 12 59 8 l26 -6 -20 -22 c-11 -12 -25 -36 -32 -54 -7 -17 -21 -39 -32 -49 -10 -9 -19 -27 -19 -39 0 -14 -9 -26 -25 -33 -14 -7 -29 -20 -33 -30 -9 -25 -53 -74 -78 -88 -10 -6 -24 -22 -31 -34 -6 -13 -29 -31 -50 -39 -53 -22 -93 -51 -93 -67 0 -8 -7 -14 -15 -14 -23 0 -142 -117 -208 -205 -34 -44 -66 -82 -72 -84 -18 -7 -115 -113 -115 -127 0 -7 -9 -19 -20 -27 -24 -16 -70 -83 -70 -101 0 -7 -13 -22 -30 -34 -31 -24 -39 -47 -17 -55 12 -4 87 67 87 82 0 4 16 24 35 44 19 20 35 44 35 54 0 9 37 54 83 98 45 44 89 90 97 101 48 63 99 122 125 144 16 14 37 32 45 41 9 8 24 18 33 22 10 3 14 13 11 21 -4 11 0 13 14 9 12 -3 25 2 33 14 15 19 73 63 84 63 10 0 185 183 185 193 0 5 9 21 21 35 55 73 76 115 103 213 9 31 23 62 31 69 8 7 15 21 15 31 0 10 5 21 10 24 5 3 10 15 10 26 0 11 7 27 15 35 8 9 15 24 15 35 0 10 4 19 9 19 5 0 12 10 16 23 3 12 10 31 15 42 13 30 30 110 45 215 7 52 18 111 24 130 6 19 11 43 11 52 0 21 -30 24 -48 6 -26 -26 -11 16 28 78 22 35 40 67 40 71 1 5 9 26 20 48 11 22 19 48 20 57 0 9 4 19 9 23 5 3 12 19 16 36 4 17 13 42 21 57 8 15 14 34 14 43 0 8 4 19 9 25 6 5 15 29 21 54 6 25 18 72 27 105 28 114 46 240 48 355 l2 115 49 20 c27 11 51 22 54 25 3 3 18 14 34 24 l30 19 23 -27 c13 -15 23 -34 23 -42 0 -8 4 -14 9 -14 5 0 11 -8 15 -17 3 -10 23 -45 45 -78 41 -62 48 -88 32 -127 -6 -13 -19 -55 -31 -95 -12 -39 -28 -77 -36 -84 -8 -6 -14 -20 -14 -30 0 -14 7 -19 30 -19 31 0 50 22 50 59 0 11 6 35 14 53 8 18 20 52 27 76 7 24 17 46 22 49 5 3 23 -8 40 -25 45 -42 154 -89 223 -97 140 -15 146 -20 93 -77 -16 -18 -40 -46 -52 -61 -12 -16 -27 -34 -33 -40 -16 -18 -72 -128 -79 -157 -3 -14 -10 -34 -15 -45 -4 -11 -13 -40 -20 -65 -6 -25 -16 -61 -21 -80 -6 -19 -11 -42 -10 -50 1 -44 22 -122 45 -162 14 -26 26 -58 26 -71 0 -14 7 -30 15 -37 8 -7 15 -28 15 -46 0 -19 4 -34 10 -34 5 0 13 -12 16 -27 4 -16 14 -40 22 -55 14 -24 14 -28 -1 -43 -13 -12 -15 -26 -11 -55 6 -38 -11 -170 -26 -200 -5 -8 -15 -55 -24 -105 -20 -110 -23 -421 -4 -427 7 -3 11 -28 9 -74 -1 -48 3 -78 15 -99 34 -62 70 -128 85 -158 17 -31 16 -32 -29 -97 -25 -36 -49 -66 -54 -68 -4 -2 -8 -9 -8 -16 0 -7 -13 -31 -28 -52 -16 -21 -31 -47 -35 -57 -4 -10 -13 -17 -20 -14 -14 4 -11 313 5 387 14 69 14 85 -1 85 -34 0 -53 -50 -64 -168 -9 -104 -9 -118 6 -135 24 -27 27 -248 4 -315 -10 -26 -17 -58 -17 -71 0 -13 -7 -29 -15 -36 -8 -7 -15 -27 -15 -45 0 -18 -7 -38 -15 -45 -8 -7 -15 -24 -15 -38 0 -13 -8 -39 -19 -56 -10 -17 -22 -52 -25 -78 -4 -25 -16 -66 -28 -90 -17 -34 -21 -61 -21 -130 0 -65 -3 -88 -13 -92 -17 -6 -20 -121 -4 -131 16 -10 21 14 51 215 6 41 16 85 21 96 6 12 11 36 12 53 1 18 7 35 13 39 7 4 15 27 19 50 4 23 11 45 15 48 5 3 9 15 9 27 0 13 6 31 14 42 7 11 16 37 20 58 4 20 11 37 16 37 6 0 10 8 10 17 0 16 11 48 62 178 11 28 31 68 45 90 13 22 52 87 85 144 54 94 61 102 76 88 13 -14 14 -25 3 -88 -6 -40 -16 -78 -21 -83 -4 -6 -11 -28 -15 -49 -4 -22 -19 -69 -32 -105 -13 -37 -27 -75 -30 -86 -3 -10 -37 -80 -76 -155 -146 -285 -159 -313 -208 -471 -11 -36 -24 -74 -29 -85 -25 -63 -40 -114 -40 -142 0 -37 -17 -54 -22 -21 -2 13 -11 24 -22 26 -18 4 -18 -1 -11 -64 9 -89 9 -114 -2 -204 -11 -99 -5 -242 10 -237 7 2 13 19 14 38 13 178 33 186 33 14 0 -69 4 -144 10 -167 15 -67 30 -148 39 -208 5 -30 13 -73 19 -95 6 -22 21 -83 33 -135 12 -52 32 -126 45 -165 12 -38 27 -88 33 -110 5 -22 19 -67 31 -100 12 -33 37 -105 57 -160 19 -55 41 -113 48 -130 7 -16 20 -52 29 -80 9 -27 20 -59 25 -70 40 -91 54 -193 31 -233 -5 -9 -25 -52 -44 -94 -22 -48 -41 -78 -50 -78 -16 0 -66 66 -66 88 0 7 -6 23 -14 35 -21 31 -63 172 -71 234 -4 29 -11 55 -16 59 -5 3 -9 17 -9 32 0 15 -6 39 -14 53 -7 14 -16 42 -20 62 -4 21 -11 37 -16 37 -6 0 -10 10 -10 23 0 12 -7 35 -15 51 -8 15 -15 38 -15 50 0 12 -7 31 -15 42 -8 10 -15 31 -15 46 0 15 -6 33 -13 40 -8 7 -16 31 -20 52 -3 22 -10 42 -15 45 -33 23 -52 449 -28 634 15 115 13 161 -8 154 -6 -2 -14 -24 -17 -49 -4 -25 -12 -54 -18 -65 -7 -14 -7 -23 1 -31 8 -8 8 -15 -1 -26 -16 -19 -17 -454 -1 -470 5 -5 10 -36 10 -67 0 -47 4 -61 20 -72 16 -11 19 -21 15 -40 -5 -18 -1 -31 14 -46 12 -12 19 -26 15 -32 -5 -9 24 -116 51 -184 6 -16 20 -57 30 -90 10 -33 24 -74 32 -92 7 -17 13 -40 13 -52 0 -11 4 -40 9 -63 6 -24 17 -79 27 -123 9 -44 23 -90 31 -102 15 -26 17 -55 3 -69 -10 -10 -3 -92 21 -249 15 -100 14 -141 -6 -215 -10 -36 -19 -86 -20 -112 -2 -26 -10 -59 -19 -73 -9 -13 -16 -42 -16 -64 0 -22 -4 -42 -9 -46 -5 -3 -12 -31 -16 -63 -3 -31 -13 -88 -23 -127 -21 -89 -25 -592 -5 -617 7 -8 16 -41 19 -73 4 -32 13 -70 21 -84 7 -15 13 -37 13 -51 0 -14 7 -34 15 -44 8 -11 15 -39 15 -62 0 -28 5 -44 15 -48 10 -3 15 -19 15 -45 0 -25 5 -41 15 -45 9 -3 15 -19 15 -41 0 -22 6 -38 15 -41 10 -4 15 -20 15 -45 0 -26 5 -42 15 -45 9 -4 15 -19 15 -39 0 -18 7 -38 15 -45 8 -7 15 -27 15 -45 0 -21 6 -35 16 -39 11 -4 14 -13 10 -30 -7 -30 2 -56 19 -56 10 0 12 -10 8 -33 -3 -22 0 -38 9 -48 8 -8 17 -31 21 -53 3 -21 13 -43 21 -50 8 -6 16 -19 18 -29 1 -10 8 -19 13 -20 14 -3 19 53 6 66 -6 6 -11 18 -11 26 0 9 -6 28 -14 43 -8 15 -17 42 -21 60 -4 18 -11 38 -15 43 -4 6 -10 27 -14 48 -4 20 -11 37 -15 37 -5 0 -11 18 -15 40 -3 23 -10 49 -15 58 -5 9 -19 51 -31 92 -12 41 -26 82 -30 90 -4 9 -11 30 -15 49 -4 18 -13 44 -21 59 -8 15 -14 35 -14 45 0 10 -5 28 -12 40 -6 12 -15 40 -19 62 -8 41 -26 112 -55 225 -23 85 -32 546 -13 593 7 17 13 58 14 92 0 35 6 70 14 78 7 9 14 40 15 70 2 30 11 66 21 81 12 17 15 36 12 56 -4 17 2 54 13 91 11 34 20 70 20 81 0 32 17 11 23 -29 4 -21 14 -67 22 -103 9 -36 22 -93 29 -127 7 -34 31 -100 54 -145 48 -98 49 -106 62 -403 11 -273 14 -325 34 -515 8 -80 20 -201 25 -270 6 -69 15 -170 21 -225 6 -55 15 -163 20 -240 6 -77 15 -167 20 -200 16 -103 15 -143 -3 -163 -14 -15 -17 -41 -17 -150 0 -103 -4 -139 -17 -167 -13 -27 -14 -38 -5 -47 8 -8 14 -5 21 14 5 15 15 29 20 33 6 3 12 27 12 53 1 26 4 61 8 77 7 30 7 30 18 -15 30 -115 35 -148 23 -169 -6 -12 -17 -21 -25 -21 -7 0 -21 -7 -30 -16 -11 -12 -19 -13 -29 -5 -9 8 -18 3 -34 -19 -12 -16 -22 -35 -22 -43 0 -7 -7 -22 -15 -33 -8 -10 -15 -27 -15 -36 0 -9 -6 -21 -14 -25 -7 -4 -22 -24 -33 -43 -10 -19 -36 -52 -57 -72 -20 -21 -35 -42 -31 -47 3 -6 -15 -29 -40 -52 -25 -23 -45 -51 -45 -61 0 -11 -13 -36 -30 -54 -17 -20 -27 -40 -24 -49 4 -9 0 -15 -9 -15 -9 0 -39 -48 -77 -125 -54 -108 -63 -134 -68 -194 -6 -85 4 -141 23 -141 9 0 15 -10 15 -24 0 -17 22 -43 76 -92 86 -76 123 -99 137 -85 16 16 -1 46 -38 65 -19 11 -64 51 -100 89 -69 75 -67 69 -69 196 -1 33 4 55 11 58 6 3 15 19 19 36 3 17 17 48 30 69 13 21 24 44 24 52 0 8 5 18 11 22 6 3 19 25 29 48 9 22 27 50 39 60 11 11 21 23 21 28 0 9 177 250 190 258 4 3 15 21 23 40 18 42 40 72 90 122 53 53 99 71 167 64 30 -3 73 -7 96 -9 54 -4 132 -53 155 -97 14 -25 19 -56 19 -110 l0 -75 -65 -77 c-36 -42 -65 -81 -65 -86 0 -6 -7 -12 -15 -16 -9 -3 -15 -18 -15 -36 0 -23 4 -30 20 -30 11 0 20 6 20 13 0 18 44 78 103 139 28 30 47 58 47 72 0 13 7 29 15 36 19 16 19 79 0 104 -8 11 -15 32 -15 47 0 14 -7 32 -15 39 -10 8 -15 31 -15 66 0 57 -13 76 -30 44 -8 -15 -17 -19 -38 -14 -53 12 -60 15 -67 32 -9 24 -32 181 -40 277 -3 44 -10 105 -15 135 -13 77 -25 544 -23 855 1 261 10 381 38 530 9 44 22 118 29 165 8 47 22 119 31 160 9 41 20 122 26 180 5 58 14 124 19 148 6 23 10 73 10 110 1 43 6 74 15 86 8 11 15 32 15 47 0 14 9 38 20 52 11 14 20 35 20 46 0 12 7 24 16 28 10 4 14 13 10 29 -5 17 -1 24 15 29 16 5 19 12 15 31 -5 17 -2 26 9 30 8 4 15 16 15 29 0 12 7 28 15 35 9 7 15 29 15 54 0 23 5 68 11 100 6 32 9 60 7 62 -7 6 -46 -80 -57 -126 -28 -112 -43 -154 -79 -227 -41 -83 -86 -158 -99 -166 -4 -3 -19 -1 -31 4 l-24 9 7 157 c4 87 12 164 17 170 6 7 21 13 33 13 31 0 99 53 154 120 24 30 52 58 62 62 24 9 39 68 39 159 0 41 5 80 10 85 7 7 13 121 16 300 3 159 10 293 15 298 5 6 9 24 9 42 0 17 6 47 14 66 8 19 18 59 21 89 4 30 14 69 22 88 10 23 14 50 10 83 -5 36 -3 48 7 48 18 0 26 22 26 75 0 45 -16 68 -30 45 -5 -7 -11 -34 -15 -59 -4 -25 -12 -52 -18 -60 -11 -13 -18 -54 -35 -211 -4 -36 -16 -81 -27 -100 l-19 -35 -8 60 c-5 33 -13 98 -20 145 -6 47 -17 103 -23 125 -7 22 -20 76 -30 120 -9 44 -23 100 -30 125 -7 25 -16 61 -20 80 -4 19 -17 67 -30 105 -13 39 -27 87 -31 108 -3 20 -10 39 -14 42 -5 3 -11 24 -15 48 -4 23 -11 47 -15 52 -4 6 -11 25 -15 43 -4 18 -13 45 -21 60 -8 15 -14 33 -14 40 0 7 -4 20 -9 30 -16 32 -51 127 -51 140 0 7 -4 20 -9 30 -5 9 -14 49 -20 87 -5 39 -17 108 -25 155 -27 150 -56 437 -53 520 0 14 -3 53 -7 88 -10 76 2 80 47 16 17 -25 47 -62 65 -82 18 -21 65 -79 105 -130 167 -217 339 -411 430 -485 35 -28 55 -37 84 -37 21 0 47 -7 57 -15 27 -20 61 -10 125 39 45 34 215 211 286 297 47 56 213 268 251 319 56 75 121 146 128 139 3 -3 1 -61 -4 -130 -5 -68 -14 -185 -20 -259 -10 -133 -33 -286 -51 -344 -5 -16 -12 -61 -15 -100 -4 -39 -10 -75 -14 -81 -4 -5 -10 -23 -14 -40 -8 -35 -51 -152 -77 -212 -11 -23 -19 -48 -19 -56 0 -15 -24 -80 -40 -108 -5 -9 -12 -34 -15 -55 -4 -22 -10 -50 -15 -64 -18 -52 -41 -140 -75 -285 -19 -82 -41 -172 -49 -200 -22 -81 -37 -170 -43 -263 -6 -79 -8 -84 -18 -59 -6 16 -18 33 -25 37 -9 5 -14 32 -16 72 -3 81 -22 209 -33 222 -5 6 -12 37 -16 69 -4 31 -11 57 -15 57 -4 0 -10 27 -13 60 -3 34 -9 66 -15 73 -5 7 -12 36 -15 65 -4 29 -11 68 -16 85 -15 47 -42 342 -46 497 -4 171 -4 160 -14 160 -18 0 -22 -57 -22 -268 1 -135 5 -220 11 -228 6 -7 13 -45 16 -86 3 -44 11 -77 19 -84 9 -6 10 -15 5 -24 -5 -8 -5 -21 1 -31 5 -10 9 -28 9 -41 0 -13 6 -32 14 -43 7 -11 12 -38 11 -60 -3 -52 3 -75 21 -75 10 0 13 -7 8 -25 -8 -34 4 -95 20 -95 9 0 11 -16 8 -57 -3 -43 2 -73 18 -118 13 -33 25 -77 27 -98 3 -20 9 -40 14 -43 5 -3 9 -26 9 -52 0 -26 5 -65 10 -87 5 -22 12 -150 15 -285 5 -183 10 -256 22 -288 8 -24 13 -52 10 -64 -3 -11 -1 -32 5 -47 5 -14 11 -44 13 -66 1 -22 9 -61 17 -87 11 -38 16 -44 24 -31 9 14 19 8 71 -43 44 -43 74 -64 109 -74 46 -14 49 -17 55 -55 4 -22 9 -100 12 -172 6 -124 5 -133 -12 -133 -25 0 -68 36 -77 63 -3 12 -13 29 -20 38 -22 24 -74 131 -74 150 0 9 -7 30 -15 45 -8 16 -15 42 -15 57 0 35 -40 93 -52 75 -13 -21 -9 -75 7 -88 8 -7 15 -27 15 -46 0 -20 6 -37 16 -42 11 -6 15 -17 11 -31 -3 -15 1 -24 14 -31 10 -6 19 -21 19 -34 0 -13 7 -26 15 -30 8 -3 15 -12 15 -21 0 -9 9 -33 19 -53 14 -27 18 -50 14 -84 -3 -26 -2 -55 2 -65 6 -14 10 -10 19 21 6 22 16 41 22 43 17 6 25 -24 14 -53 -12 -31 -12 -211 1 -279 4 -27 16 -88 24 -135 40 -214 63 -364 91 -590 33 -262 18 -1052 -26 -1350 -5 -36 -14 -103 -20 -150 -16 -119 -15 -118 -63 -128 l-42 -8 -15 49 c-8 27 -19 47 -25 45 -6 -2 -10 -49 -11 -111 -1 -84 -5 -110 -17 -120 -15 -12 -28 -104 -19 -139 2 -11 12 -18 21 -16 12 3 16 15 16 53 1 117 41 178 139 216 56 21 168 23 211 5 17 -7 45 -20 63 -27 33 -14 112 -116 112 -145 0 -7 16 -28 35 -45 19 -18 35 -38 35 -46 0 -7 5 -13 10 -13 6 0 10 -5 10 -10 0 -17 43 -70 56 -70 7 0 16 10 19 21 6 17 -4 33 -42 73 -27 28 -56 64 -64 80 -7 16 -22 31 -31 34 -12 3 -18 14 -18 33 0 15 -4 30 -9 33 -5 3 -12 22 -15 41 -4 20 -14 39 -22 42 -7 3 -14 16 -14 29 0 29 -20 32 -27 4 -7 -25 -10 -25 -50 0 -37 22 -39 27 -18 66 8 16 15 37 15 47 0 9 4 17 8 17 12 0 42 -34 42 -48 0 -6 4 -13 9 -16 16 -10 19 32 5 60 -10 18 -14 56 -12 119 1 76 -1 96 -15 110 -18 18 -17 87 3 250 5 39 12 108 15 155 4 47 11 114 16 149 5 35 14 134 19 220 5 86 16 215 25 286 8 72 19 220 25 330 20 378 39 581 57 617 9 18 22 45 30 60 7 14 13 33 13 42 0 9 4 16 9 16 8 0 22 51 41 152 5 26 14 56 20 67 7 15 8 27 0 40 -5 11 -10 33 -10 48 0 16 -6 37 -13 47 -12 16 -15 12 -29 -41 -9 -32 -13 -75 -11 -95 5 -35 -19 -152 -37 -187 -44 -83 -73 -155 -81 -201 -6 -30 -16 -158 -24 -285 -26 -427 -34 -533 -44 -592 -16 -89 -41 -360 -41 -432 0 -36 -7 -106 -15 -155 -8 -50 -21 -185 -30 -301 -35 -474 -42 -514 -94 -529 -20 -6 -40 -5 -55 2 -21 9 -23 16 -19 59 3 26 9 71 14 98 18 89 39 335 50 565 9 204 4 893 -7 911 -5 9 -31 169 -49 306 -7 56 -16 106 -19 111 -3 6 -11 39 -16 74 -6 34 -17 101 -25 148 -29 166 -33 215 -28 282 5 54 10 72 27 83 29 21 44 19 51 -7 7 -25 14 -44 37 -98 35 -82 178 -106 255 -44 20 17 39 36 43 44 4 8 12 24 17 35 6 12 14 35 17 53 4 17 12 34 17 37 5 4 9 19 9 34 0 15 7 36 15 47 8 10 15 38 15 61 0 29 6 46 19 55 14 10 20 31 25 83 15 178 22 208 56 258 19 26 37 47 42 47 13 0 9 -74 -6 -118 -14 -38 -28 -198 -29 -317 0 -39 4 -52 22 -63 17 -12 21 -25 21 -66 0 -28 7 -69 15 -91 8 -22 14 -61 15 -86 0 -26 7 -60 15 -75 8 -16 15 -55 15 -89 0 -33 5 -76 10 -95 14 -48 14 -544 0 -569 -6 -11 -12 -37 -13 -58 -2 -21 -8 -48 -15 -60 -7 -12 -12 -30 -12 -40 0 -16 -13 -64 -42 -148 -5 -16 -14 -50 -19 -74 -5 -24 -13 -49 -17 -55 -5 -6 -19 -47 -31 -91 -13 -44 -29 -95 -37 -113 -8 -18 -14 -39 -14 -47 0 -7 -8 -27 -17 -44 -14 -23 -15 -33 -6 -42 6 -6 16 -8 22 -4 18 10 52 85 45 96 -3 6 2 19 12 30 9 10 17 33 16 50 0 18 5 32 14 36 9 3 14 20 14 44 0 26 5 42 15 45 10 4 15 20 15 45 0 26 5 42 15 45 11 4 15 21 15 59 0 34 5 57 15 65 8 7 15 22 15 34 1 11 7 32 15 46 8 14 14 40 15 57 0 18 8 52 17 75 29 72 24 661 -7 717 -5 11 -10 48 -10 83 -1 36 -7 74 -15 88 -8 14 -14 38 -15 53 0 15 -7 42 -16 58 -8 17 -13 37 -10 44 2 7 -4 48 -15 92 -24 94 -26 175 -5 264 16 71 20 249 5 249 -15 0 -10 27 5 33 8 3 18 23 21 44 11 72 26 148 36 180 14 47 31 132 34 177 1 23 9 42 19 48 10 6 16 22 16 47 0 24 5 41 14 44 7 3 17 26 20 51 4 25 11 48 16 51 4 3 11 24 15 48 4 23 12 45 17 48 5 3 12 23 15 45 4 21 13 45 21 53 10 11 13 29 9 65 -4 37 -1 56 10 68 12 14 15 55 14 244 -1 126 -6 233 -10 239 -5 5 -11 42 -13 82 -2 48 -9 78 -20 90 -13 14 -16 40 -16 135 0 91 -3 121 -16 139 -20 29 -20 53 -1 69 10 9 15 31 15 72 0 52 -3 61 -21 65 -15 4 -19 11 -15 27 3 11 6 72 7 134 2 98 0 114 -16 126 -14 10 -16 21 -11 48 4 22 1 48 -9 71 -8 20 -15 47 -15 59 0 29 -60 237 -86 295 -8 17 -14 36 -14 43 0 6 -11 35 -25 63 -13 29 -27 72 -30 97 -11 78 -15 89 -34 95 -11 3 -24 18 -30 33 -14 34 -38 73 -114 186 l-59 89 18 31 c10 17 24 37 31 44 7 7 13 22 13 33 0 10 4 19 9 19 5 0 13 15 16 33 4 17 18 47 32 65 23 31 24 35 9 51 -21 23 -20 48 0 59 14 8 16 35 16 216 -1 114 -6 222 -11 239 -14 48 -32 126 -43 182 -5 28 -13 59 -18 70 -4 11 -11 32 -14 48 -4 15 -11 27 -16 27 -15 0 -24 -69 -12 -95 6 -13 14 -47 18 -75 4 -28 11 -53 15 -56 5 -3 9 -22 9 -43 0 -20 7 -61 15 -89 28 -93 8 -491 -26 -527 -5 -5 -9 -15 -9 -22 0 -20 -43 -113 -52 -113 -4 0 -8 -6 -8 -13 0 -17 -98 -157 -110 -157 -5 0 -12 -10 -16 -22 -4 -13 -21 -39 -38 -58 -36 -41 -47 -55 -157 -205 -45 -60 -84 -112 -88 -115 -3 -3 -24 -27 -46 -55 -22 -27 -47 -57 -55 -65 -18 -19 -40 -48 -140 -177 -90 -117 -251 -282 -299 -306 -101 -50 -169 -26 -298 106 -78 80 -154 171 -256 305 -16 20 -45 55 -65 78 -20 22 -54 61 -74 86 -21 25 -46 56 -57 69 -35 40 -131 180 -131 189 0 4 -4 10 -9 12 -5 2 -21 21 -36 43 -14 22 -41 56 -59 75 -52 57 -118 143 -127 167 -4 12 -19 39 -32 60 -48 76 -83 243 -82 383 2 103 24 339 35 360 4 8 11 36 14 62 4 26 11 50 17 53 5 4 9 42 9 85 0 43 4 81 8 84 5 3 26 -18 48 -45 55 -70 185 -175 227 -183 19 -4 42 -15 52 -26 16 -18 17 -22 1 -54 -18 -38 -20 -114 -6 -216 11 -82 55 -259 71 -285 4 -5 10 -26 14 -45 4 -19 10 -39 14 -45 4 -5 18 -44 31 -85 12 -41 26 -79 30 -85 4 -5 11 -21 15 -35 4 -14 20 -53 36 -87 16 -34 29 -65 29 -68 0 -5 78 -162 102 -205 34 -62 74 -119 114 -160 23 -25 53 -58 67 -75 14 -16 50 -43 81 -60 48 -26 59 -28 76 -18 25 16 71 17 104 2 79 -36 274 168 396 416 33 67 60 126 60 130 0 4 11 31 24 60 25 52 36 79 77 195 12 36 29 79 36 97 7 17 13 37 13 45 0 8 4 18 9 23 5 6 19 42 30 80 12 39 27 84 32 100 17 50 23 247 10 300 -11 42 -10 50 6 68 10 11 37 28 60 38 22 9 54 28 69 41 53 44 149 131 160 144 6 7 22 18 36 23 16 6 28 21 33 38 3 15 13 36 22 45 8 9 12 21 9 27 -3 5 0 16 8 24 8 8 18 31 21 51 4 20 11 36 16 36 5 0 9 5 9 11 0 24 81 173 112 206 11 12 18 29 15 37 -9 22 -24 20 -37 -4 -21 -40 -30 -19 -30 74 0 53 -4 98 -10 101 -5 3 -10 13 -10 22 0 28 -69 173 -82 173 -5 0 -8 6 -8 13 0 15 -22 46 -65 90 -77 81 -95 123 -48 114 45 -8 177 18 245 50 62 29 188 134 188 158 1 16 48 70 56 62 6 -6 -1 -93 -26 -321 -5 -49 -14 -94 -20 -100 -5 -5 -10 -27 -10 -47 0 -24 -5 -39 -15 -43 -8 -3 -15 -18 -15 -33 0 -16 -9 -36 -20 -46 -11 -9 -20 -26 -20 -36 0 -11 -4 -23 -10 -26 -5 -3 -10 -14 -10 -24 0 -9 -5 -22 -12 -29 -23 -23 -57 -132 -41 -132 19 0 51 46 87 125 20 44 41 88 46 97 6 10 10 33 10 52 0 50 35 105 61 99 11 -3 23 -13 27 -22 3 -9 16 -30 29 -47 13 -17 23 -38 23 -48 0 -9 14 -30 31 -47 18 -17 46 -52 63 -78 18 -26 53 -66 78 -90 26 -23 50 -51 53 -62 4 -10 14 -19 24 -19 10 0 24 -11 31 -25 14 -26 34 -33 45 -15 4 6 -5 20 -19 31 -14 11 -26 25 -26 31 0 5 -12 23 -27 38 -58 58 -125 137 -161 189 -20 29 -54 77 -74 105 -83 114 -91 129 -90 172 0 23 5 52 12 64 7 13 13 89 15 192 3 94 8 175 13 182 5 6 12 23 16 39 8 34 13 34 67 -3 24 -16 52 -30 62 -30 9 0 25 -8 36 -19 15 -15 17 -27 12 -57 -4 -22 -4 -68 0 -104 15 -143 30 -246 40 -269 6 -14 14 -43 19 -65 24 -113 32 -143 40 -161 39 -87 50 -115 50 -125 0 -5 4 -18 9 -28 5 -9 27 -53 48 -97 21 -44 48 -95 60 -114 26 -38 34 -91 9 -58 -7 9 -21 17 -31 17 -15 0 -17 -6 -12 -42 3 -23 12 -47 20 -53 9 -7 14 -36 15 -99 0 -49 6 -94 11 -99 6 -6 11 -25 11 -41 0 -17 7 -44 15 -60 8 -15 15 -36 15 -45 1 -9 9 -34 20 -56 11 -22 19 -48 20 -57 0 -9 11 -25 25 -36 15 -12 23 -26 19 -35 -3 -10 3 -21 15 -29 12 -7 21 -22 21 -33 0 -33 22 -53 70 -65 25 -6 72 -18 105 -26 33 -8 96 -21 140 -29 177 -32 202 -39 235 -67 14 -11 92 -108 172 -212 47 -61 110 -178 177 -328 11 -27 30 -67 40 -90 11 -24 29 -68 41 -98 11 -30 25 -64 30 -75 58 -129 63 -146 52 -170 -6 -14 -18 -25 -27 -25 -20 0 -19 -37 1 -48 12 -7 18 -28 21 -76 2 -36 11 -79 19 -94 7 -15 14 -35 14 -44 0 -9 5 -20 10 -23 6 -3 10 -21 10 -39 0 -19 7 -39 15 -46 8 -7 15 -20 15 -30 0 -10 7 -23 15 -30 8 -7 15 -22 15 -34 0 -24 38 -66 59 -66 8 0 10 -7 6 -19 -6 -19 48 -91 99 -132 11 -10 73 -68 136 -130 63 -61 131 -122 150 -134 19 -12 44 -32 54 -44 11 -11 25 -21 31 -21 7 0 34 -12 61 -27 48 -27 52 -28 189 -25 128 3 142 5 165 26 14 12 37 27 53 34 17 7 27 19 27 32 0 11 7 23 15 26 22 9 18 32 -6 39 -11 4 -18 13 -15 20 6 17 -17 83 -68 190 -24 50 -46 98 -50 108 -8 24 -56 23 -56 -1 0 -10 4 -22 9 -27 14 -15 81 -148 81 -162 0 -7 4 -13 10 -13 5 0 13 -18 16 -41 4 -22 13 -43 20 -46 8 -3 13 -19 12 -38 -2 -65 -92 -105 -236 -105 -77 0 -100 4 -141 24 -59 28 -121 65 -139 83 -7 7 -18 13 -23 13 -5 0 -15 11 -21 25 -6 13 -20 28 -32 31 -19 6 -109 93 -198 192 -20 22 -46 46 -57 52 -12 6 -21 16 -21 23 0 7 -12 23 -25 36 -14 13 -25 27 -25 32 0 12 -42 73 -52 77 -5 2 -8 11 -8 20 0 10 -6 29 -14 44 -8 15 -17 40 -21 57 -4 17 -11 33 -16 36 -5 4 -9 18 -9 33 0 15 -9 43 -19 63 -14 27 -19 53 -18 110 l2 74 75 37 c120 58 166 70 230 58 30 -6 93 -15 140 -21 46 -6 91 -14 100 -19 8 -4 35 -11 60 -15 25 -4 50 -11 55 -15 6 -4 23 -10 39 -14 15 -4 35 -14 43 -22 9 -8 22 -13 30 -10 7 3 22 -3 33 -14 11 -11 28 -20 39 -20 10 0 24 -7 31 -15 7 -8 20 -15 30 -15 10 0 34 -7 53 -15 20 -8 52 -15 71 -15 19 0 38 -4 41 -10 8 -13 112 -13 120 -1 7 12 -43 51 -66 51 -10 0 -21 -5 -24 -10 -5 -8 -11 -7 -21 1 -8 6 -37 11 -64 10 -36 0 -52 4 -56 14 -3 7 -20 17 -37 21 -32 7 -77 31 -88 47 -4 5 -15 6 -26 3 -13 -4 -26 1 -38 14 -10 11 -30 20 -45 20 -15 0 -33 7 -40 15 -7 8 -22 15 -34 15 -12 0 -31 7 -42 15 -10 8 -35 15 -54 15 -19 0 -46 7 -60 15 -14 8 -52 14 -84 15 -60 0 -125 16 -139 35 -4 5 -5 20 -2 33 3 12 -2 39 -12 60 -10 20 -16 45 -15 55 2 9 -6 30 -17 46 -12 16 -18 36 -15 45 3 9 0 26 -8 39 -8 12 -18 38 -22 58 -3 21 -13 42 -21 49 -8 7 -15 21 -15 32 0 32 -31 128 -41 128 -5 0 -9 15 -9 33 0 18 -7 42 -15 53 -8 10 -15 31 -15 45 0 14 -7 34 -15 45 -8 10 -15 28 -15 39 0 11 -7 33 -15 49 -8 15 -15 36 -15 45 0 10 -7 26 -15 37 -8 10 -15 27 -15 37 0 9 -9 34 -20 54 -11 21 -20 45 -20 54 0 8 -13 43 -30 77 -16 34 -30 71 -30 82 0 11 -4 28 -9 38 -5 9 -12 24 -15 32 -17 44 -65 115 -79 118 -19 4 -22 -18 -8 -46 29 -55 51 -104 51 -116 0 -7 7 -19 15 -26 8 -7 15 -25 15 -41 0 -15 4 -30 9 -33 5 -3 12 -22 15 -41 4 -19 11 -35 15 -35 5 0 11 -18 15 -40 3 -22 10 -40 15 -40 5 0 11 -18 15 -40 3 -22 11 -40 16 -40 6 0 10 -9 10 -21 0 -12 6 -35 13 -52 8 -18 25 -65 38 -105 13 -41 27 -76 31 -79 5 -2 8 -12 8 -21 0 -19 64 -228 86 -280 8 -18 14 -39 14 -46 0 -8 7 -27 15 -42 8 -16 15 -39 15 -51 0 -13 4 -23 10 -23 5 0 12 -17 16 -37 4 -21 13 -48 21 -60 8 -12 13 -34 11 -49 -3 -23 -13 -31 -73 -55 -38 -16 -82 -35 -97 -44 -14 -8 -31 -15 -37 -15 -12 0 -13 2 -61 130 -34 93 -43 116 -70 175 -21 46 -28 63 -70 164 -28 67 -119 230 -145 257 -5 6 -17 22 -25 34 -8 13 -42 55 -76 94 -78 91 -104 134 -138 226 -40 111 -57 219 -46 310 5 41 9 164 10 273 0 124 4 197 10 197 16 0 12 14 -14 53 -13 19 -27 50 -31 68 -4 19 -13 43 -20 55 -8 12 -10 26 -5 34 10 16 -4 67 -25 90 -8 9 -15 28 -15 43 0 14 -4 28 -9 31 -4 3 -11 26 -14 52 -2 26 -9 49 -14 53 -6 3 -14 20 -20 36 -8 24 -15 29 -34 27 -13 -2 -26 -6 -28 -8 -3 -3 20 -60 40 -96 5 -10 19 -48 30 -85 12 -38 27 -88 35 -112 8 -25 14 -54 14 -65 1 -12 9 -46 20 -76 17 -49 19 -84 20 -311 0 -195 -3 -259 -13 -273 -12 -17 -18 -15 -93 30 -43 27 -83 52 -89 56 -136 104 -250 213 -322 308 -30 40 -80 124 -88 150 -4 13 -14 30 -21 38 -8 7 -14 22 -14 33 0 10 -4 19 -10 19 -5 0 -10 7 -10 16 0 15 -22 68 -51 126 -5 10 -13 34 -18 55 -5 21 -18 74 -29 118 -36 148 -52 230 -62 325 -6 52 -13 109 -16 127 -4 28 -1 33 19 38 15 4 42 -2 70 -14 25 -12 51 -21 57 -21 5 0 18 -4 28 -9 9 -5 49 -19 87 -31 39 -12 75 -26 80 -30 6 -5 27 -11 47 -15 50 -10 198 -139 198 -174 0 -6 8 -11 18 -11 13 0 21 -13 30 -45 12 -44 23 -52 56 -39 20 8 21 30 1 38 -8 3 -15 13 -15 23 0 18 -44 73 -59 73 -4 0 -15 16 -24 35 -10 20 -24 35 -34 35 -10 0 -35 16 -56 35 l-39 36 7 90 c3 50 11 103 17 117 15 37 21 392 7 445 -6 23 -16 70 -22 105 -5 34 -14 62 -19 62 -4 0 -8 8 -8 19 0 10 -7 24 -15 31 -9 7 -13 20 -10 28 7 20 -19 59 -47 68 -32 10 -49 35 -35 52 8 10 2 21 -28 48 -21 19 -42 34 -47 34 -4 0 -18 10 -29 21 -12 12 -34 23 -50 24 -17 1 -37 12 -49 27 -15 20 -33 27 -77 33 -32 4 -68 16 -82 26 -13 10 -35 19 -48 19 -13 0 -38 7 -54 16 -21 11 -43 13 -70 9 -33 -6 -45 -2 -84 24 -25 17 -52 31 -60 31 -16 0 -125 105 -125 119 0 5 -19 20 -42 34 -24 14 -54 37 -67 51 -14 14 -30 26 -38 26 -7 0 -13 5 -13 11 0 6 -9 8 -20 4 -11 -4 -20 -2 -20 4 0 19 -39 51 -63 51 -16 0 -28 9 -35 25 -9 18 -19 25 -41 25 -18 0 -41 11 -61 30 -18 17 -37 30 -44 30 -6 0 -19 8 -28 18 -37 38 -92 74 -101 65z m774 -584 c9 -5 42 -12 73 -15 31 -4 59 -11 62 -15 3 -5 15 -9 27 -9 12 0 34 -6 48 -14 14 -7 42 -16 61 -20 19 -3 58 -18 86 -31 29 -14 56 -25 60 -25 5 0 18 -8 30 -17 11 -10 33 -27 48 -38 51 -36 81 -69 114 -125 18 -30 39 -62 45 -70 16 -21 33 -85 40 -153 4 -32 14 -75 22 -95 13 -30 14 -63 9 -180 -3 -79 -11 -153 -17 -164 -6 -11 -11 -65 -11 -120 -1 -109 -6 -118 -54 -93 -16 8 -36 15 -45 15 -9 0 -30 7 -45 15 -16 8 -37 15 -46 15 -9 0 -19 4 -22 9 -4 5 -24 12 -46 16 -37 6 -77 21 -122 46 -10 5 -27 9 -39 9 -12 0 -43 12 -68 28 -25 15 -64 36 -86 46 -66 33 -177 131 -271 241 -54 64 -208 310 -244 391 -12 27 -40 86 -62 132 -22 45 -38 88 -35 96 3 7 52 36 110 64 85 42 114 52 158 53 30 0 70 6 89 14 35 13 100 10 131 -6z m-2863 -4 c40 -9 81 -19 90 -24 9 -5 37 -17 62 -26 69 -26 132 -59 137 -71 2 -7 -5 -29 -16 -50 -12 -21 -21 -42 -21 -47 0 -4 -11 -24 -24 -45 -12 -20 -26 -48 -30 -60 -8 -23 -26 -57 -132 -238 -79 -136 -167 -239 -299 -349 -63 -54 -221 -145 -250 -145 -11 0 -57 -19 -96 -40 -9 -4 -38 -12 -64 -16 -26 -3 -60 -13 -74 -20 -14 -8 -34 -14 -43 -14 -9 0 -20 -4 -23 -10 -3 -5 -17 -10 -31 -10 -14 0 -39 -7 -55 -16 -36 -18 -39 -17 -38 22 2 103 -4 201 -14 219 -15 26 -15 339 0 357 6 7 14 40 18 73 4 33 11 65 15 70 4 6 10 22 14 37 7 30 54 102 101 156 40 46 119 103 180 131 28 12 57 26 66 31 9 5 34 12 55 16 22 3 44 10 49 14 13 10 91 29 182 43 39 7 75 15 79 20 12 12 83 8 162 -8z m1126 -78 c66 -44 111 -95 145 -167 l36 -75 0 -270 0 -270 -35 -65 c-48 -90 -138 -178 -225 -220 -38 -18 -72 -36 -75 -39 -3 -3 -25 -16 -50 -29 -25 -13 -56 -30 -70 -38 -81 -46 -199 -94 -244 -100 -28 -3 -80 -12 -116 -21 -83 -20 -230 -19 -270 2 -16 8 -37 15 -47 15 -10 0 -31 7 -47 15 -15 8 -32 15 -37 15 -5 0 -28 12 -52 27 -23 15 -51 32 -61 38 -11 5 -48 53 -83 105 -35 52 -75 110 -89 128 -29 37 -26 62 11 86 56 37 201 198 264 292 37 56 95 159 130 230 35 71 82 166 104 212 28 57 47 84 61 87 12 2 39 7 61 10 22 3 67 13 100 21 101 24 203 32 385 31 152 -2 180 -5 204 -20z m860 13 c60 -6 141 -20 180 -30 39 -11 83 -20 98 -20 18 0 33 -9 45 -25 10 -14 26 -35 36 -47 9 -11 17 -27 17 -35 0 -7 4 -21 9 -31 5 -9 23 -48 41 -87 122 -264 254 -456 388 -565 23 -19 49 -41 57 -48 19 -17 19 -66 0 -82 -8 -7 -15 -16 -15 -21 0 -37 -159 -206 -235 -249 -53 -30 -147 -62 -220 -75 -68 -12 -189 -7 -237 10 -25 8 -68 18 -94 21 -27 4 -63 15 -79 25 -17 9 -67 33 -112 52 -44 19 -115 55 -157 81 -42 25 -80 46 -85 46 -4 0 -18 9 -31 20 -13 11 -29 20 -37 20 -7 0 -13 4 -13 9 0 5 -9 12 -20 16 -23 7 -109 115 -133 168 -15 33 -17 74 -17 321 0 306 5 344 58 413 31 42 118 104 157 114 46 11 277 10 399 -1z m-620 -914 c11 -22 36 -56 58 -78 21 -21 38 -42 38 -47 0 -5 -16 -19 -36 -31 -19 -13 -46 -40 -60 -61 -13 -22 -30 -39 -37 -39 -6 0 -25 21 -42 45 -16 25 -33 45 -36 45 -8 0 -49 36 -49 43 0 3 17 24 39 47 21 23 47 59 57 81 23 48 43 47 68 -5z m-1848 -146 c11 -11 -8 -238 -25 -300 -5 -19 -13 -57 -16 -85 -10 -69 -60 -230 -102 -325 -11 -25 -26 -61 -34 -80 -20 -53 -87 -178 -124 -235 -35 -53 -208 -233 -265 -275 -18 -14 -58 -40 -88 -58 -31 -18 -75 -50 -99 -69 -34 -28 -47 -33 -56 -24 -9 9 -12 88 -12 299 0 252 2 292 18 326 9 21 17 49 17 62 0 13 6 38 14 56 7 18 22 60 32 93 10 33 24 69 31 80 7 11 13 27 13 35 0 15 87 174 113 207 7 8 47 51 91 94 57 57 87 80 112 85 19 3 37 10 40 15 3 5 13 9 22 9 9 0 29 6 44 14 14 8 45 17 68 21 22 4 53 13 68 19 15 7 43 20 62 29 41 19 62 21 76 7z m2040 -37 c129 -88 302 -181 366 -197 41 -10 77 -73 98 -171 10 -45 13 -145 4 -145 -11 0 -109 33 -119 41 -5 4 -66 21 -134 38 -98 25 -145 31 -226 31 -101 0 -102 0 -140 33 l-38 33 -4 92 c-4 83 -2 97 20 145 25 52 97 127 121 127 7 0 31 -12 52 -27z m-348 -10 c15 -16 43 -47 61 -70 29 -38 33 -51 38 -130 5 -84 4 -90 -19 -118 -14 -17 -30 -40 -37 -52 -11 -22 -18 -23 -118 -23 -58 0 -122 -4 -142 -9 -20 -6 -78 -19 -130 -31 -51 -11 -111 -30 -133 -41 -22 -11 -52 -19 -66 -17 -26 3 -27 5 -26 63 1 66 17 147 36 183 6 12 32 32 57 43 55 26 64 30 144 73 34 19 78 42 97 52 19 11 37 22 40 25 3 4 25 17 50 30 25 13 51 29 58 36 22 21 59 15 90 -14z m937 -248 c91 -14 153 -58 221 -157 16 -24 34 -48 39 -54 6 -6 19 -28 30 -50 11 -21 22 -41 26 -44 9 -8 37 -92 48 -145 6 -27 15 -71 21 -98 6 -26 8 -60 4 -75 -9 -40 -36 -116 -46 -126 -4 -6 -8 -16 -8 -24 0 -7 -11 -37 -24 -65 -13 -29 -32 -68 -40 -87 -37 -80 -32 -75 -181 -205 -44 -38 -91 -80 -105 -92 -14 -13 -28 -19 -33 -14 -5 5 -2 46 7 93 18 95 22 333 6 343 -15 9 -12 37 6 75 25 50 14 231 -20 325 -14 38 -32 75 -40 81 -20 14 -20 23 0 63 23 47 19 221 -6 221 -11 0 -20 39 -13 56 4 11 9 11 32 0 14 -8 49 -17 76 -21z m-1525 2 c0 -12 -7 -32 -15 -44 -8 -12 -17 -57 -21 -106 -6 -78 -5 -86 15 -106 21 -21 22 -61 1 -61 -10 0 -27 -44 -48 -125 -10 -40 -15 -98 -14 -172 1 -158 2 -184 1 -306 -1 -111 18 -274 33 -283 13 -8 10 -42 -4 -47 -7 -2 -27 10 -44 27 -16 17 -69 64 -117 105 -48 40 -98 87 -111 105 -31 40 -96 167 -96 186 0 9 -4 20 -9 25 -9 11 -34 87 -50 160 -22 93 26 283 103 410 40 67 59 91 114 148 56 59 81 73 152 81 30 4 62 11 70 16 25 16 40 11 40 -13z m758 -148 c17 -16 32 -33 32 -37 0 -12 -64 -72 -78 -72 -7 0 -27 13 -44 29 -30 27 -31 31 -18 60 24 58 60 65 108 20z m-185 -65 c31 -5 45 -16 77 -62 38 -52 40 -59 40 -129 0 -89 -26 -256 -46 -294 -7 -15 -14 -34 -14 -42 0 -8 -9 -26 -21 -41 -24 -31 -77 -35 -149 -11 -103 33 -162 45 -282 56 -70 6 -136 8 -147 4 -11 -3 -30 -1 -42 6 -21 11 -22 15 -16 150 5 121 9 144 33 194 28 60 60 87 129 107 22 6 45 15 50 19 6 4 28 10 50 14 22 4 52 11 66 17 28 10 193 27 219 22 8 -2 32 -6 53 -10z m507 -4 c25 -4 70 -15 100 -24 30 -9 72 -21 93 -27 120 -30 174 -132 184 -346 4 -91 4 -92 -23 -110 -23 -15 -54 -18 -183 -21 -85 -1 -160 -7 -166 -12 -6 -5 -31 -12 -55 -16 -25 -3 -64 -12 -88 -20 -23 -8 -60 -14 -81 -14 l-38 0 -38 96 c-37 94 -38 98 -37 227 0 73 1 144 1 159 2 45 62 104 119 116 48 9 133 7 212 -8z m-3069 -640 c-2 -103 2 -218 9 -269 25 -181 -29 -350 -165 -511 -39 -47 -82 -101 -95 -120 -14 -19 -27 -37 -30 -40 -18 -16 -151 -271 -181 -345 -4 -11 -14 -36 -23 -55 -8 -19 -25 -60 -36 -90 -12 -30 -25 -59 -30 -65 -4 -5 -17 -43 -30 -83 -24 -78 -40 -94 -69 -68 -10 9 -22 16 -27 16 -5 1 -27 9 -49 20 -22 11 -47 19 -55 20 -9 0 -26 7 -38 16 -17 12 -21 21 -16 42 4 15 13 34 20 43 8 8 14 26 14 38 0 13 9 34 19 48 11 13 17 31 14 39 -3 8 2 25 11 39 9 13 16 34 16 46 0 11 6 33 14 47 7 15 21 54 31 87 10 33 23 74 30 90 21 50 67 187 79 235 6 25 17 55 24 67 6 12 12 31 12 42 0 11 5 23 10 26 6 3 10 21 10 39 0 21 8 40 21 52 14 12 18 25 14 42 -4 15 1 32 14 48 11 14 17 33 14 44 -3 12 1 22 10 26 9 3 19 20 23 37 3 18 10 37 14 42 4 6 11 21 15 35 4 14 19 42 31 62 13 21 24 47 24 57 0 11 9 25 20 31 11 6 20 17 20 25 0 8 5 15 10 15 6 0 10 7 10 15 0 8 10 25 23 37 12 13 38 43 57 68 19 24 49 60 65 79 36 41 137 122 144 115 3 -2 4 -86 2 -184z m2723 136 c9 -19 16 -40 16 -47 0 -7 6 -20 14 -28 31 -36 29 -59 -8 -96 -19 -19 -38 -35 -42 -35 -15 0 -94 72 -94 85 0 8 8 22 19 32 10 10 29 42 42 71 13 28 27 52 30 52 4 0 14 -15 23 -34z m-2062 -64 c3 -11 -1 -30 -8 -43 -7 -13 -13 -43 -14 -67 0 -23 -6 -58 -14 -76 -7 -18 -17 -53 -21 -77 -7 -45 -27 -111 -50 -164 -8 -16 -16 -37 -20 -45 -25 -62 -75 -137 -101 -150 -51 -26 -185 -60 -313 -80 -36 -6 -69 -14 -75 -19 -19 -15 -56 -23 -56 -12 0 6 11 34 25 63 37 80 55 139 55 181 0 36 27 77 50 77 11 0 118 66 158 97 13 10 32 25 42 33 10 8 34 26 52 40 18 13 86 77 151 142 64 65 121 118 126 118 5 0 11 -8 13 -18z m1533 -13 c96 -14 212 -38 260 -54 22 -7 59 -18 82 -24 24 -6 63 -31 93 -58 l52 -46 -4 -161 c-3 -133 -6 -167 -22 -196 -26 -49 -108 -158 -124 -165 -8 -3 -26 3 -40 13 -46 31 -244 122 -265 122 -8 0 -28 7 -43 15 -16 8 -37 15 -46 15 -9 0 -19 4 -22 9 -3 5 -20 12 -38 15 -82 16 -102 71 -111 307 -7 165 -2 216 22 223 20 5 112 -1 206 -15z m2621 -36 c84 -98 138 -148 268 -247 48 -36 93 -66 100 -66 8 0 16 -3 18 -7 5 -13 68 -43 88 -43 14 0 21 -10 25 -37 13 -80 38 -169 61 -222 31 -70 21 -83 -39 -53 -25 12 -56 22 -69 22 -35 0 -189 29 -213 40 -11 5 -33 12 -50 15 -16 3 -39 14 -50 23 -27 23 -75 88 -75 102 0 6 -12 32 -27 58 -26 44 -41 87 -64 192 -5 25 -14 53 -20 64 -6 10 -12 45 -14 79 -2 33 -9 65 -15 71 -5 5 -10 23 -10 38 0 45 32 35 86 -29z m-1401 33 c15 -10 18 -27 19 -87 2 -137 -13 -348 -26 -370 -14 -22 -100 -66 -188 -94 -54 -17 -129 -47 -162 -66 -10 -5 -23 -9 -30 -9 -7 0 -26 -7 -43 -16 -16 -9 -52 -28 -79 -42 l-50 -25 -22 28 c-12 15 -38 60 -58 99 l-36 71 -1 175 -1 175 46 42 c28 25 63 45 89 52 23 5 60 14 82 20 98 25 186 41 226 42 24 0 64 4 89 8 71 13 125 12 145 -3z m-1321 -571 c11 -8 30 -15 42 -15 13 0 25 -4 29 -9 3 -5 20 -13 37 -17 18 -3 39 -10 48 -15 8 -5 38 -18 65 -29 60 -26 118 -53 125 -60 3 -3 29 -21 58 -41 53 -37 86 -76 136 -162 l28 -48 0 -500 c1 -275 -2 -502 -5 -506 -15 -14 -60 -3 -94 23 -89 68 -165 165 -226 290 -87 177 -167 357 -167 376 0 8 -4 18 -9 24 -5 5 -21 44 -35 87 -25 72 -34 96 -57 152 -10 24 -27 100 -40 175 -5 30 -13 80 -19 111 -11 62 -13 139 -4 163 8 20 62 21 88 1z m1296 -4 c12 -24 12 -108 -1 -176 -5 -27 -14 -81 -20 -120 -7 -38 -15 -74 -19 -80 -4 -5 -11 -25 -15 -42 -3 -18 -11 -33 -16 -33 -5 0 -9 -5 -9 -11 0 -6 -6 -25 -14 -42 -8 -18 -24 -61 -36 -97 -12 -36 -25 -69 -29 -75 -5 -5 -11 -23 -15 -40 -4 -16 -18 -52 -30 -80 -13 -27 -42 -93 -65 -145 -63 -139 -113 -230 -167 -302 -50 -66 -129 -137 -178 -159 -53 -25 -53 -24 -55 491 -1 258 2 477 7 487 5 10 18 36 28 58 32 68 93 154 122 172 15 10 29 21 32 24 3 4 23 16 45 26 22 11 63 31 91 45 29 14 66 29 83 33 17 4 31 11 31 16 0 5 8 9 18 9 9 0 30 7 46 15 15 8 36 15 45 15 9 0 27 7 41 14 36 20 68 19 80 -3z m-666 -13 c9 -12 16 -30 16 -39 0 -9 18 -37 40 -62 22 -25 40 -48 40 -51 0 -4 -18 -31 -40 -60 -22 -29 -45 -67 -51 -84 -15 -44 -35 -40 -60 11 -12 23 -41 62 -65 87 l-44 45 44 45 c24 25 54 64 66 88 25 48 33 51 54 20z m1013 -880 c13 -12 23 -27 23 -35 0 -7 4 -13 8 -13 4 0 13 -12 19 -27 7 -16 28 -55 48 -88 19 -33 45 -80 56 -105 11 -25 27 -57 35 -72 7 -14 14 -34 14 -45 0 -10 7 -27 15 -37 8 -11 15 -30 15 -42 0 -12 7 -27 15 -34 8 -7 15 -24 15 -39 0 -14 7 -35 15 -45 8 -11 15 -28 15 -39 0 -18 24 -105 40 -142 5 -11 14 -42 20 -70 41 -185 50 -238 49 -300 l0 -70 -19 55 c-11 30 -24 79 -30 108 -17 78 -49 153 -177 412 -63 129 -122 248 -129 263 -8 16 -14 38 -14 50 0 12 -7 35 -15 51 -8 15 -15 35 -15 42 0 8 -11 47 -25 86 -30 87 -33 158 -6 158 2 0 15 -10 28 -22z m-1917 -149 c40 -60 53 -90 52 -113 -1 -17 -2 -134 -2 -261 0 -230 4 -277 46 -466 7 -37 14 -80 14 -95 1 -16 7 -40 15 -54 18 -32 19 -103 1 -138 -7 -15 -16 -55 -19 -89 -4 -35 -11 -71 -16 -80 -12 -22 -29 -216 -41 -478 -5 -110 -14 -245 -19 -300 -6 -55 -13 -194 -16 -310 -6 -236 -22 -574 -31 -652 -5 -51 -6 -52 -44 -58 -48 -8 -57 -3 -65 38 -4 17 -11 37 -15 42 -4 6 -11 25 -15 43 -4 18 -13 45 -21 60 -8 15 -14 35 -14 44 0 9 -4 20 -10 23 -5 3 -10 15 -10 26 0 11 -9 44 -21 72 -33 82 -36 89 -52 137 -19 58 -80 257 -102 335 -9 33 -23 79 -31 103 -8 23 -14 51 -14 61 0 10 -9 54 -21 97 -12 44 -25 108 -31 144 -5 36 -13 79 -19 96 -8 28 -25 151 -49 359 -4 39 -11 78 -15 88 -10 24 48 277 98 422 40 120 76 208 107 267 29 54 111 221 129 263 12 28 26 59 31 70 39 88 50 116 50 129 0 8 4 17 9 20 5 3 12 23 16 43 4 21 10 43 15 48 4 6 10 36 13 67 10 104 27 104 97 -3z m1850 21 c0 -65 41 -207 85 -293 14 -27 25 -54 25 -59 0 -6 48 -107 106 -225 58 -118 109 -226 114 -241 5 -15 18 -52 30 -82 13 -30 26 -77 30 -105 4 -27 12 -63 18 -80 38 -107 52 -314 28 -425 -9 -41 -16 -96 -16 -121 0 -25 -7 -68 -15 -95 -8 -27 -15 -72 -15 -100 0 -29 -6 -74 -14 -100 -26 -90 -46 -174 -46 -195 0 -38 -157 -547 -195 -634 -7 -16 -24 -61 -36 -100 -12 -38 -25 -74 -29 -80 -4 -5 -15 -48 -26 -94 -10 -46 -25 -86 -32 -89 -8 -2 -31 1 -52 7 -51 15 -46 -27 -70 566 -5 132 -15 285 -21 340 -6 55 -14 206 -19 335 -10 264 -29 547 -38 570 -3 8 -11 42 -16 74 -6 34 -17 61 -25 64 -11 4 -13 -16 -8 -119 3 -68 13 -279 21 -469 9 -190 20 -397 26 -460 5 -63 16 -275 25 -470 8 -195 20 -374 26 -398 17 -62 -4 -233 -39 -312 -21 -49 -94 -110 -131 -110 -59 0 -219 142 -248 220 -9 25 -21 51 -26 58 -16 21 -31 237 -31 467 -1 206 6 286 34 415 5 25 19 94 30 155 12 60 29 141 40 180 10 38 23 97 30 130 7 33 18 83 27 110 8 28 18 66 23 85 51 198 81 303 90 315 5 6 11 27 15 48 4 20 11 40 16 43 5 3 9 12 9 21 0 9 14 38 30 65 22 35 30 61 30 95 0 25 6 69 14 97 23 82 44 184 60 291 18 118 26 397 15 509 -9 87 -5 102 51 171 18 22 36 50 41 63 6 15 17 22 34 22 24 0 25 -3 25 -60z m497 -1247 c-2 -16 -4 -3 -4 27 0 30 2 43 4 28 2 -16 2 -40 0 -55z m-2151 30 c11 -50 36 -127 50 -160 8 -17 14 -40 14 -51 0 -12 5 -24 10 -27 6 -3 10 -19 10 -35 0 -16 5 -41 11 -57 23 -57 82 -279 114 -428 7 -33 20 -91 28 -130 22 -96 57 -284 70 -375 15 -103 13 -478 -4 -630 -12 -108 -18 -132 -46 -180 -46 -78 -108 -137 -179 -171 -71 -34 -99 -32 -151 10 -32 26 -73 115 -73 161 0 13 -7 47 -17 76 -15 49 -15 56 1 113 18 63 27 231 46 785 5 159 14 323 19 365 6 42 15 180 21 306 13 272 27 425 42 442 16 20 27 15 34 -14z m2164 -326 c0 -38 5 -78 12 -90 7 -12 13 -53 15 -92 1 -38 7 -88 13 -110 14 -52 8 -405 -9 -505 -7 -41 -19 -87 -27 -102 -8 -14 -14 -40 -14 -57 0 -17 -4 -31 -10 -31 -5 0 -12 -17 -16 -37 -4 -21 -13 -47 -20 -58 -8 -11 -14 -29 -14 -42 0 -12 -4 -25 -10 -28 -5 -3 -10 -19 -10 -35 0 -16 -7 -35 -15 -44 -8 -8 -15 -26 -15 -41 0 -14 -6 -38 -14 -53 -8 -15 -18 -46 -21 -67 -4 -22 -11 -44 -15 -50 -4 -5 -10 -28 -14 -50 -20 -116 -114 -348 -143 -353 -18 -3 -58 48 -101 125 -14 26 -17 169 -3 177 5 3 12 26 15 51 4 24 11 47 15 50 5 2 12 21 16 41 3 20 10 44 15 53 4 9 17 41 28 71 84 227 102 278 108 303 3 15 10 30 15 33 5 3 9 13 9 23 0 10 12 54 26 97 25 76 32 104 69 259 57 239 85 423 85 556 0 47 3 89 7 92 14 14 23 -20 23 -86z m-2394 -1629 c7 -7 17 -51 22 -98 13 -121 46 -188 117 -234 29 -20 61 -36 71 -36 15 0 16 -10 10 -102 -11 -184 -21 -232 -72 -344 -27 -60 -59 -84 -112 -84 -41 0 -102 25 -102 41 0 5 -11 27 -25 49 -14 22 -25 45 -25 52 -1 7 -9 31 -20 53 -11 22 -19 49 -20 61 0 11 -5 25 -10 30 -11 11 -22 76 -42 245 l-11 97 29 38 c48 62 62 89 69 128 4 20 11 38 15 41 5 3 11 24 15 46 7 41 8 41 43 35 20 -3 41 -11 48 -18z m1904 3 c5 -11 10 -36 10 -56 0 -49 41 -130 96 -190 37 -40 44 -54 39 -75 -3 -14 -10 -52 -16 -85 -5 -33 -14 -68 -19 -77 -6 -10 -10 -37 -10 -60 0 -24 -6 -55 -14 -70 -8 -15 -17 -40 -21 -57 -4 -17 -11 -33 -16 -36 -5 -4 -9 -17 -9 -31 0 -41 -37 -111 -73 -139 -25 -18 -46 -25 -80 -25 -70 0 -95 27 -158 175 -16 37 -31 149 -34 248 l-3 97 49 21 c34 15 60 36 84 69 47 64 56 91 65 193 5 48 14 94 20 102 18 22 77 19 90 -4z m-2198 -246 c23 -34 29 -57 38 -154 6 -62 17 -126 25 -142 8 -15 15 -44 15 -63 0 -19 6 -47 14 -63 8 -15 22 -48 32 -73 9 -25 23 -59 30 -77 8 -17 14 -35 14 -40 1 -13 32 -46 62 -65 34 -22 97 -32 143 -24 52 10 123 82 131 134 3 22 10 45 14 52 10 16 69 4 77 -17 6 -16 -13 -246 -27 -313 -5 -25 -14 -72 -19 -105 -5 -33 -17 -94 -25 -135 -9 -41 -20 -111 -26 -156 -5 -45 -14 -93 -20 -108 -5 -15 -10 -44 -10 -64 0 -20 -7 -66 -16 -102 -13 -54 -16 -137 -15 -510 0 -245 5 -476 10 -515 6 -38 15 -135 21 -215 6 -80 17 -192 25 -250 8 -58 16 -116 17 -130 3 -24 1 -25 -47 -22 -27 2 -55 8 -61 13 -6 5 -15 46 -19 92 -3 45 -11 105 -16 132 -5 28 -14 102 -19 165 -20 248 -41 476 -46 493 -3 9 -9 88 -14 175 -9 152 -33 375 -45 412 -3 10 -10 103 -15 206 -32 631 -32 630 -83 711 -13 21 -28 54 -32 73 -4 19 -11 40 -15 45 -9 12 -36 133 -45 199 -4 28 -19 77 -35 110 -26 57 -41 127 -56 256 -4 30 -13 70 -20 88 -7 18 -11 39 -7 48 7 18 20 5 65 -61z m2105 -2977 c-2 -13 -4 -3 -4 22 0 25 2 35 4 23 2 -13 2 -33 0 -45z"/> <path d="M3674 12259 c-10 -12 -39 -32 -64 -45 -85 -46 -105 -60 -115 -82 -7 -16 -18 -22 -43 -22 -28 0 -36 -5 -45 -30 -9 -23 -16 -29 -30 -24 -13 4 -30 -7 -61 -40 -34 -37 -44 -44 -55 -34 -11 11 -15 9 -25 -7 -19 -32 -87 -95 -103 -95 -17 0 -52 -38 -53 -57 0 -7 4 -13 9 -13 18 0 75 35 94 58 10 12 23 22 28 22 9 0 59 35 165 115 15 11 37 27 49 35 78 51 133 91 144 104 8 9 21 16 31 16 10 0 23 7 30 16 8 8 33 27 57 40 37 22 41 28 33 45 -14 24 -22 24 -46 -2z"/> <path d="M3023 10124 c-3 -9 4 -39 17 -68 12 -28 27 -64 33 -81 19 -53 49 -115 58 -121 5 -3 9 -16 9 -30 0 -15 6 -24 15 -24 9 0 15 -9 15 -24 0 -28 18 -44 26 -23 6 18 -17 92 -61 192 -8 17 -24 53 -36 80 -12 28 -28 54 -35 58 -8 4 -14 19 -14 32 0 28 -17 33 -27 9z"/> <path d="M2912 10110 c-12 -12 -22 -25 -22 -30 0 -13 -60 -111 -83 -135 -11 -11 -28 -39 -39 -62 -10 -24 -24 -43 -31 -43 -7 0 -41 -37 -77 -81 -36 -44 -75 -91 -87 -104 -13 -12 -23 -26 -23 -30 0 -5 -15 -21 -32 -36 -20 -17 -27 -28 -18 -29 8 0 23 9 35 20 49 47 103 90 114 90 6 0 11 5 11 11 0 5 27 38 60 71 33 34 60 68 60 76 0 8 20 34 45 59 25 24 45 51 45 59 0 8 16 37 35 64 19 27 35 56 35 64 0 8 5 18 10 21 15 9 12 35 -3 35 -7 0 -23 -9 -35 -20z"/> <path d="M6404 9595 c-8 -20 4 -35 27 -35 22 0 24 8 5 33 -16 21 -25 22 -32 2z"/> <path d="M7230 9582 c0 -8 12 -23 118 -141 31 -35 66 -75 78 -88 18 -23 22 -24 42 -12 29 18 28 22 -10 53 -67 54 -75 62 -88 85 -25 47 -92 111 -116 111 -13 0 -24 -4 -24 -8z"/> <path d="M7460 9317 c0 -2 7 -18 16 -36 13 -26 21 -32 42 -29 37 4 39 27 3 41 -17 6 -31 15 -31 19 0 4 -7 8 -15 8 -8 0 -15 -2 -15 -3z"/> <path d="M6706 8748 c3 -13 13 -30 20 -39 8 -8 14 -21 14 -28 0 -41 219 -291 255 -291 7 0 31 -20 53 -45 31 -35 46 -45 71 -45 17 0 31 -5 31 -10 0 -6 24 -36 53 -68 29 -31 63 -73 77 -92 13 -19 68 -79 122 -134 54 -54 98 -107 98 -116 0 -10 15 -31 33 -47 17 -16 50 -54 71 -86 24 -35 46 -57 55 -55 27 5 23 35 -8 67 -17 18 -31 37 -31 44 0 11 -22 38 -142 179 -70 81 -136 148 -146 148 -6 0 -21 17 -33 38 -37 59 -110 142 -126 142 -4 0 -37 25 -73 55 -37 32 -74 55 -87 55 -13 0 -23 5 -23 10 0 6 -40 51 -90 101 -49 50 -90 97 -90 105 0 9 -13 32 -29 52 -16 20 -32 47 -36 60 -4 13 -14 22 -26 22 -16 0 -19 -4 -13 -22z"/> <path d="M3265 8338 c-9 -22 4 -43 17 -30 7 7 7 16 0 29 -10 17 -11 17 -17 1z"/> <path d="M5690 8266 c0 -13 7 -40 15 -59 11 -27 15 -79 16 -204 1 -196 4 -214 37 -202 22 8 22 11 22 172 0 134 -3 167 -15 177 -8 7 -15 25 -15 41 0 29 -36 99 -51 99 -5 0 -9 -11 -9 -24z"/> <path d="M400 7712 c-14 -9 -29 -22 -33 -29 -4 -7 -17 -13 -28 -13 -11 0 -22 -6 -25 -13 -3 -8 -19 -14 -36 -14 -17 0 -34 -6 -39 -15 -7 -12 -28 -16 -99 -17 -108 -1 -139 -16 -140 -68 0 -18 5 -33 10 -33 6 0 10 -10 10 -23 0 -17 11 -28 48 -44 46 -22 87 -26 227 -24 48 1 97 22 84 35 -3 4 -64 8 -135 10 -137 4 -169 10 -196 34 -45 38 -6 68 95 74 43 3 83 10 90 17 6 6 23 11 38 11 15 0 34 7 43 15 8 8 21 15 28 15 7 0 22 6 33 14 11 7 33 16 48 20 23 6 28 11 25 33 -4 33 -16 37 -48 15z"/> <path d="M915 7550 c-4 -6 -39 -27 -78 -48 l-72 -37 -169 -2 c-93 -1 -173 -6 -177 -10 -4 -4 -10 -27 -14 -49 -9 -58 8 -64 51 -20 29 30 42 36 75 36 22 0 49 -5 61 -11 31 -17 208 17 290 55 65 30 97 63 84 85 -9 14 -43 14 -51 1z"/> <path d="M1182 7527 c-11 -12 -23 -40 -27 -62 -4 -22 -11 -51 -17 -65 -79 -191 -74 -182 -163 -276 -75 -79 -108 -116 -165 -184 -64 -76 -99 -112 -145 -145 -22 -16 -45 -34 -52 -40 -82 -70 -203 -103 -329 -91 -38 4 -84 8 -101 9 -18 1 -33 7 -33 13 0 6 -9 22 -21 35 -15 18 -19 32 -14 55 6 35 32 91 45 99 5 3 11 19 15 35 7 33 37 93 92 183 27 44 33 61 24 70 -20 20 -44 -5 -91 -99 -25 -49 -56 -105 -68 -124 -12 -19 -22 -45 -22 -56 0 -12 -7 -27 -15 -34 -8 -7 -15 -18 -15 -24 0 -6 -7 -24 -15 -40 -13 -25 -13 -31 -1 -45 8 -9 16 -27 18 -41 2 -18 12 -27 39 -35 21 -5 46 -18 56 -27 28 -25 287 -27 297 -2 4 10 13 13 25 9 14 -4 23 0 30 13 7 13 18 18 34 15 18 -4 34 4 60 29 20 18 51 47 70 64 19 17 38 37 43 45 5 8 26 27 47 42 21 16 49 46 62 67 20 32 55 76 82 103 67 66 135 127 152 136 11 6 23 24 27 39 3 15 12 41 19 57 7 17 18 44 25 60 7 17 18 44 24 60 21 49 46 132 46 148 0 26 -16 28 -38 4z"/> <path d="M7987 7543 c-12 -20 16 -52 60 -72 26 -13 56 -27 65 -32 10 -5 66 -16 125 -25 88 -13 119 -14 165 -5 64 13 88 5 108 -37 17 -38 42 -10 38 42 l-3 41 -180 6 -180 6 -86 41 c-88 43 -104 48 -112 35z"/> <path d="M8870 7487 c-36 -17 -68 -21 -168 -23 -68 -1 -126 -5 -129 -7 -2 -3 8 -14 23 -24 22 -14 46 -18 104 -17 88 2 160 12 177 26 7 5 17 7 22 3 15 -8 51 13 51 30 0 28 -33 33 -80 12z"/> <path d="M368 7329 c-16 -12 -28 -30 -28 -43 0 -15 -9 -27 -25 -34 -35 -16 -47 -82 -15 -82 18 0 110 138 110 166 0 19 -10 17 -42 -7z"/> <path d="M8547 7334 c-4 -4 18 -59 29 -73 6 -7 34 21 34 35 0 14 -54 47 -63 38z"/> <path d="M8600 7240 c0 -19 32 -60 46 -60 23 0 28 29 9 50 -19 21 -55 27 -55 10z"/> <path d="M8663 7163 c-18 -6 -16 -28 2 -43 13 -10 19 -10 35 5 11 10 17 21 15 25 -6 10 -37 18 -52 13z"/> <path d="M4365 6824 c-4 -32 -5 -127 -4 -213 2 -86 -1 -162 -5 -170 -5 -8 -15 -62 -23 -120 -24 -186 -38 -265 -51 -288 -6 -12 -12 -35 -12 -52 0 -24 4 -31 19 -31 23 0 35 31 26 67 -4 17 -1 29 10 37 11 8 17 30 18 71 1 33 7 65 13 70 7 6 14 38 18 73 3 35 10 71 14 80 11 20 16 447 6 497 -9 51 -21 43 -29 -21z"/> <path d="M3950 3853 c0 -21 7 -78 15 -128 8 -49 15 -114 15 -143 0 -29 5 -63 12 -75 16 -31 21 -226 8 -337 -6 -52 -17 -158 -25 -235 -8 -77 -21 -194 -30 -260 -26 -195 -35 -286 -35 -353 0 -34 -6 -78 -14 -96 -17 -40 -21 -322 -6 -346 21 -32 30 16 30 161 0 112 3 150 15 165 11 14 14 50 15 145 0 103 3 128 15 133 12 4 15 27 15 118 1 84 4 118 15 132 11 14 15 47 15 117 0 78 3 100 15 107 13 7 16 38 16 192 1 147 4 188 16 207 14 21 14 25 -1 48 -12 18 -16 49 -16 117 -1 66 -5 99 -15 112 -8 11 -15 39 -15 62 0 28 -5 44 -15 48 -11 4 -15 22 -15 76 0 56 -3 70 -15 70 -11 0 -15 -11 -15 -37z"/> <path d="M4977 3853 c-4 -3 -7 -30 -7 -59 0 -37 -4 -54 -15 -58 -11 -4 -15 -21 -15 -62 0 -38 -5 -63 -16 -75 -22 -25 -22 -590 1 -625 10 -16 15 -49 15 -107 0 -63 4 -88 15 -97 12 -10 15 -38 15 -135 0 -100 3 -124 15 -129 12 -4 15 -26 15 -108 1 -67 5 -109 13 -120 9 -11 14 -74 16 -215 1 -109 6 -202 10 -206 4 -4 14 -1 21 8 15 18 14 265 -1 380 -5 39 -16 138 -24 220 -8 83 -22 204 -30 270 -9 66 -20 167 -25 225 -6 58 -15 125 -21 150 -13 54 -13 332 0 409 29 171 50 324 45 332 -6 11 -18 12 -27 2z"/> <path d="M5568 2156 c-8 -20 -8 -30 0 -38 19 -19 44 -1 40 29 -4 36 -25 40 -40 9z"/> <path d="M5546 2092 c-2 -4 -7 -24 -11 -45 -4 -20 -11 -37 -16 -37 -4 0 -11 -20 -15 -45 -3 -25 -10 -48 -15 -51 -5 -3 -9 -25 -9 -49 0 -29 -5 -45 -15 -49 -17 -6 -22 -76 -5 -76 12 0 30 33 30 55 0 9 11 40 24 68 13 29 29 75 36 102 7 28 21 65 31 82 18 32 18 33 -1 43 -22 12 -27 12 -34 2z"/> <path d="M3460 1828 c0 -27 32 -114 47 -129 6 -6 16 -8 23 -4 13 8 4 43 -17 67 -8 9 -12 21 -9 27 3 5 2 21 -4 35 -12 32 -40 35 -40 4z"/> <path d="M3917 1843 c-11 -10 -8 -30 6 -45 13 -14 46 -95 67 -164 7 -23 10 -57 7 -75 -18 -123 -28 -211 -23 -216 3 -3 12 -3 21 0 10 4 15 19 15 45 0 21 7 47 15 58 21 28 21 200 -2 245 -9 19 -22 38 -30 42 -8 5 -11 17 -7 32 4 18 1 27 -11 31 -9 4 -14 13 -10 22 8 22 -31 43 -48 25z"/> <path d="M4987 1832 c-10 -10 -17 -34 -17 -53 0 -22 -7 -41 -20 -52 -11 -9 -20 -28 -20 -41 0 -13 -7 -37 -15 -52 -18 -34 -11 -136 11 -169 8 -11 14 -30 14 -42 0 -16 6 -23 20 -23 19 0 20 4 14 53 -4 28 -11 60 -15 69 -5 9 -9 29 -9 45 0 28 45 167 68 210 16 30 15 73 -1 73 -8 0 -21 -8 -30 -18z"/> <path d="M5421 1708 c-9 -24 -4 -48 9 -48 14 0 32 29 28 46 -5 27 -27 28 -37 2z"/> <path d="M5042 1540 c0 -19 2 -27 5 -17 2 9 2 25 0 35 -3 9 -5 1 -5 -18z"/> <path d="M4945 950 c-8 -14 19 -47 81 -99 43 -36 54 -52 60 -85 3 -23 10 -45 14 -51 7 -10 21 -84 26 -140 6 -78 22 -173 32 -198 7 -16 12 -40 12 -54 0 -31 39 -113 57 -120 7 -3 13 -11 13 -18 0 -18 39 -65 64 -76 31 -14 61 -33 81 -49 10 -8 31 -13 47 -11 19 2 34 -3 41 -13 18 -24 176 -26 189 -2 5 9 15 16 22 16 46 0 216 144 216 182 0 10 9 27 19 37 10 10 22 41 26 69 8 57 -11 166 -31 183 -8 6 -14 18 -14 26 0 8 -6 27 -14 41 -8 15 -17 34 -20 42 -4 8 -15 29 -26 45 -10 17 -27 45 -36 63 -9 19 -23 36 -31 39 -7 3 -13 13 -13 22 0 29 -60 91 -86 91 -24 0 -32 -14 -15 -24 13 -9 115 -164 156 -238 20 -38 41 -70 46 -74 5 -3 9 -16 9 -29 0 -13 4 -26 9 -29 15 -9 23 -101 16 -166 -7 -58 -10 -63 -78 -133 -97 -97 -174 -138 -263 -139 -36 0 -71 5 -77 11 -6 6 -17 11 -23 11 -7 0 -33 14 -57 30 -25 17 -49 30 -54 30 -5 0 -25 15 -45 33 -38 34 -74 101 -84 157 -4 19 -11 40 -16 47 -5 6 -11 48 -13 93 -3 44 -9 89 -15 100 -5 10 -10 40 -10 66 0 68 -37 174 -61 174 -12 0 -16 5 -13 15 4 9 -6 27 -22 43 -34 34 -64 73 -64 84 0 12 -48 10 -55 -2z"/> <path d="M3815 684 c-10 -16 -17 -52 -20 -100 -1 -41 -8 -81 -15 -89 -7 -8 -15 -44 -18 -80 -2 -36 -9 -68 -13 -71 -5 -3 -9 -16 -9 -28 0 -13 -9 -35 -20 -49 -11 -14 -20 -29 -20 -34 0 -5 -13 -22 -30 -38 -16 -16 -30 -34 -30 -41 0 -7 -21 -20 -47 -30 -60 -22 -73 -32 -73 -55 0 -35 77 -14 103 28 5 8 26 25 48 38 21 14 39 31 39 38 0 6 14 25 30 41 18 18 30 40 30 55 0 15 7 36 15 48 8 12 18 50 22 85 3 35 10 66 15 69 5 3 10 46 10 95 0 57 6 96 14 110 13 19 10 34 -7 34 -3 0 -14 -12 -24 -26z"/> <path d="M3287 72 c-3 -4 3 -17 13 -30 15 -18 30 -22 82 -24 54 -3 68 1 96 21 22 17 29 28 22 35 -7 7 -17 7 -30 -2 -24 -14 -146 -16 -155 -2 -7 12 -22 13 -28 2z"/> </g> </svg>